<svg height="464pt" viewBox="-84 0 464 464" width="464pt" xmlns="http://www.w3.org/2000/svg"><path d="m43.816406 128-30.617187-20.40625c-10.425781-6.953125-15.355469-19.710938-12.3125-31.867188 1.875-7.519531 6.621093-14.003906 13.222656-18.0625l70.273437-43.265624c15.3125-9.414063 32.9375-14.398438 50.914063-14.398438h25.007813c17.972656 0 35.597656 4.984375 50.910156 14.398438l70.289062 43.257812c6.601563 4.058594 11.351563 10.542969 13.222656 18.0625 3.042969 12.15625-1.886718 24.914062-12.3125 31.867188l-30.597656 20.414062zm0 0" fill="#1d3f54"/><path d="m67.503906 304h160.589844c30.773438-.007812 55.722656 24.933594 55.722656 55.703125v104.296875h-272v-104.296875c0-30.757813 24.929688-55.695313 55.6875-55.703125zm0 0" fill="#ccdaec"/><path d="m43.816406 104h208v72c0 57.4375-46.5625 104-104 104s-104-46.5625-104-104zm0 0" fill="#e8d8bf"/><path d="m115.800781 266.984375h64v77.015625h-64zm0 0" fill="#e8d8bf"/><path d="m67.503906 304c-6.371094.011719-12.695312 1.121094-18.6875 3.28125l99 156.71875h56l-104-160zm0 0" fill="#1d3f54"/><path d="m39.113281 429.257812-11.316406-11.316406 33.941406-33.941406 11.316407 11.316406c9.371093 9.371094 9.371093 24.566406 0 33.941406-9.375 9.371094-24.570313 9.371094-33.941407 0zm0 0" fill="#e8d8bf"/><path d="m267.816406 416h16v48h-16c-13.257812 0-24-10.746094-24-24s10.742188-24 24-24zm0 0" fill="#e8d8bf"/><path d="m211.816406 464c-15.109375-20.144531-38.820312-32-64-32-25.183594 0-48.894531 11.855469-64 32h-37.242187c18.554687-39.089844 57.957031-64 101.226562-64 43.265625 0 82.667969 24.910156 101.222657 64zm0 0" fill="#6c3b15"/><g fill="#4d8ebe"><path d="m51.816406 104h192c0 17.671875-14.328125 32-32 32h-128c-17.675781 0-32-14.328125-32-32zm0 0"/><path d="m147.800781 344-48 24-8-64h24zm0 0"/><path d="m147.800781 344 48 24 8-64h-24zm0 0"/></g></svg>